HIERARCHY
ROOT hip
{
  OFFSET 0 0 0
  CHANNELS 6 Xposition Yposition Zposition Zrotation Yrotation Xrotation
  JOINT abdomen
  {
    OFFSET 0 20.6881 -0.73152
    CHANNELS 3 Zrotation Xrotation Yrotation
    JOINT chest
    {
      OFFSET 0 11.7043 -0.48768
      CHANNELS 3 Zrotation Xrotation Yrotation
      JOINT neck
      {
        OFFSET 0 22.1894 -2.19456
        CHANNELS 3 Zrotation Xrotation Yrotation
        JOINT head
        {
          OFFSET -0.24384 7.07133 1.2192
          CHANNELS 3 Zrotation Xrotation Yrotation
          JOINT leftEye
          {
            OFFSET 4.14528 8.04674 8.04672
            CHANNELS 3 Zrotation Xrotation Yrotation
            End Site
            {
              OFFSET 1 0 0
            }
          }
          JOINT rightEye
          {
            OFFSET -3.6576 8.04674 8.04672
            CHANNELS 3 Zrotation Xrotation Yrotation
            End Site
            {
              OFFSET 1 0 0
            }
          }
        }
      }
      JOINT rCollar
      {
        OFFSET -2.68224 19.2634 -4.8768
        CHANNELS 3 Zrotation Xrotation Yrotation
        JOINT rShldr
        {
          OFFSET -8.77824 -1.95073 1.46304
          CHANNELS 3 Zrotation Xrotation Yrotation
          JOINT rForeArm
          {
            OFFSET -28.1742 -1.7115 0.48768
            CHANNELS 3 Zrotation Xrotation Yrotation
            JOINT rHand
            {
              OFFSET -22.5879 0.773209 7.07136
              CHANNELS 3 Zrotation Xrotation Yrotation
              JOINT rThumb1
              {
                OFFSET -1.2192 -0.487915 3.41376
                CHANNELS 3 Zrotation Xrotation Yrotation
                JOINT rThumb2
                {
                  OFFSET -3.37035 -0.52449 3.41376
                  CHANNELS 3 Zrotation Xrotation Yrotation
                  End Site
                  {
                    OFFSET -1.78271 -1.18214 1.43049
                  }
                }
              }
              JOINT rIndex1
              {
                OFFSET -7.75947 0.938293 5.60832
                CHANNELS 3 Zrotation Xrotation Yrotation
                JOINT rIndex2
                {
                  OFFSET -2.54057 -0.884171 1.56538
                  CHANNELS 3 Zrotation Xrotation Yrotation
                  End Site
                  {
                    OFFSET -1.62519 -0.234802 1.16502
                  }
                }
              }
              JOINT rMid1
              {
                OFFSET -8.24714 1.18213 3.41376
                CHANNELS 3 Zrotation Xrotation Yrotation
                JOINT rMid2
                {
                  OFFSET -3.10165 -0.590103 1.0647
                  CHANNELS 3 Zrotation Xrotation Yrotation
                  End Site
                  {
                    OFFSET -2.48547 -0.328903 0.83742
                  }
                }
              }
              JOINT rRing1
              {
                OFFSET -8.82822 0.546677 1.51678
                CHANNELS 3 Zrotation Xrotation Yrotation
                JOINT rRing2
                {
                  OFFSET -2.60934 -0.819778 -0.0198488
                  CHANNELS 3 Zrotation Xrotation Yrotation
                  End Site
                  {
                    OFFSET -2.33842 -0.294052 0.168128
                  }
                }
              }
              JOINT rPinky1
              {
                OFFSET -8.27202 -0.0477905 -0.4584
                CHANNELS 3 Zrotation Xrotation Yrotation
                JOINT rPinky2
                {
                  OFFSET -1.82734 -0.647385 -0.700984
                  CHANNELS 3 Zrotation Xrotation Yrotation
                  End Site
                  {
                    OFFSET -1.69225 -0.51767 -0.607171
                  }
                }
              }
            }
          }
        }
      }
      JOINT lCollar
      {
        OFFSET 2.68224 19.2634 -4.8768
        CHANNELS 3 Zrotation Xrotation Yrotation
        JOINT lShldr
        {
          OFFSET 8.77824 -1.95073 1.46304
          CHANNELS 3 Zrotation Xrotation Yrotation
          JOINT lForeArm
          {
            OFFSET 28.1742 -1.7115 0.48768
            CHANNELS 3 Zrotation Xrotation Yrotation
            JOINT lHand
            {
              OFFSET 22.5879 0.773209 7.07136
              CHANNELS 3 Zrotation Xrotation Yrotation
              JOINT lThumb1
              {
                OFFSET 1.2192 -0.487915 3.41376
                CHANNELS 3 Zrotation Xrotation Yrotation
                JOINT lThumb2
                {
                  OFFSET 3.37035 -0.52449 3.41376
                  CHANNELS 3 Zrotation Xrotation Yrotation
                  End Site
                  {
                    OFFSET 1.78271 -1.18214 1.43049
                  }
                }
              }
              JOINT lIndex1
              {
                OFFSET 7.75947 0.938293 5.60832
                CHANNELS 3 Zrotation Xrotation Yrotation
                JOINT lIndex2
                {
                  OFFSET 2.54057 -0.884171 1.56538
                  CHANNELS 3 Zrotation Xrotation Yrotation
                  End Site
                  {
                    OFFSET 1.62519 -0.234802 1.16502
                  }
                }
              }
              JOINT lMid1
              {
                OFFSET 8.24714 1.18213 3.41376
                CHANNELS 3 Zrotation Xrotation Yrotation
                JOINT lMid2
                {
                  OFFSET 3.10165 -0.590103 1.0647
                  CHANNELS 3 Zrotation Xrotation Yrotation
                  End Site
                  {
                    OFFSET 2.48547 -0.328903 0.83742
                  }
                }
              }
              JOINT lRing1
              {
                OFFSET 8.82822 0.546677 1.51678
                CHANNELS 3 Zrotation Xrotation Yrotation
                JOINT lRing2
                {
                  OFFSET 2.60934 -0.819778 -0.0198488
                  CHANNELS 3 Zrotation Xrotation Yrotation
                  End Site
                  {
                    OFFSET 2.33842 -0.294052 0.168128
                  }
                }
              }
              JOINT lPinky1
              {
                OFFSET 8.27202 -0.0477905 -0.4584
                CHANNELS 3 Zrotation Xrotation Yrotation
                JOINT lPinky2
                {
                  OFFSET 1.82734 -0.647385 -0.700984
                  CHANNELS 3 Zrotation Xrotation Yrotation
                  End Site
                  {
                    OFFSET 1.69225 -0.51767 -0.607171
                  }
                }
              }
            }
          }
        }
      }
    }
  }
  JOINT rButtock
  {
    OFFSET -8.77824 4.35084 1.2192
    CHANNELS 3 Zrotation Xrotation Yrotation
    JOINT rThigh
    {
      OFFSET 0 -1.70687 -2.19456
      CHANNELS 3 Zrotation Xrotation Yrotation
      JOINT rShin
      {
        OFFSET 0 -36.8199 0.73152
        CHANNELS 3 Zrotation Xrotation Yrotation
        JOINT rFoot
        {
          OFFSET 0.73152 -45.1104 -5.12064
          CHANNELS 3 Zrotation Xrotation Yrotation
          End Site
          {
            OFFSET -1.1221 -3.69964 12.103
          }
        }
      }
    }
  }
  JOINT lButtock
  {
    OFFSET 8.77824 4.35084 1.2192
    CHANNELS 3 Zrotation Xrotation Yrotation
    JOINT lThigh
    {
      OFFSET 0 -1.70687 -2.19456
      CHANNELS 3 Zrotation Xrotation Yrotation
      JOINT lShin
      {
        OFFSET 0 -36.8199 0.73152
        CHANNELS 3 Zrotation Xrotation Yrotation
        JOINT lFoot
        {
          OFFSET -0.73152 -45.1104 -5.12064
          CHANNELS 3 Zrotation Xrotation Yrotation
          End Site
          {
            OFFSET 1.1221 -3.69964 12.103
          }
        }
      }
    }
  }
}
MOTION
Frames:	9
Frame Time:	0.00833333
18.4916 75.8354 64.0389 -8.3817 -20.1412 23.887 2.62704 1.2307 -4.20017 3.36328 -6.70479 -1.10065 18.0704 9.91853 12.5131 -20.8801 -12.6092 20.1127 -0.0 0.0 0.0 -0.0 0.0 0.0 -9.70623e-14 -6.15446e-13 -1.04317e-12 24.1233 40.2039 58.0404 -20.8909 -52.6282 112.005 -0.426985 -18.2554 -2.65707 -3.88669e-09 -2.42588e-09 -1.33789e-09 -6.69416e-09 -4.16477e-09 -2.37343e-09 -3.88668e-09 -2.42586e-09 -1.33791e-09 7.73091 5.47488 0.417314 -3.88669e-09 -2.42587e-09 -1.33791e-09 2.90554 0.965183 0.102902 -3.88668e-09 -2.42587e-09 -1.3379e-09 10.2786 0.731801 0.0259123 -3.88669e-09 -2.42587e-09 -1.3379e-09 2.22167 -0.733487 -0.20892 -9.70077e-14 -6.15428e-13 -1.04332e-12 -11.7005 41.65 -53.1319 19.7447 -12.6941 -38.0638 0.107516 9.31067 -1.32029 -7.94751e-10 5.00201e-09 3.78483e-09 -1.35083e-09 8.6432e-09 6.56575e-09 -7.94749e-10 5.00201e-09 3.78484e-09 -7.73091 5.47488 -0.417314 -7.94748e-10 5.00201e-09 3.78483e-09 -2.90554 0.965183 -0.102902 -7.94757e-10 5.00201e-09 3.78483e-09 -10.2786 0.731801 -0.0259123 -7.94746e-10 5.002e-09 3.78482e-09 -2.22167 -0.733487 0.20892 -2.03217e-16 0.0 -3.88251e-19 -11.2098 -13.0666 5.62972 0.0815529 13.8217 1.05249 -3.33559 -11.9064 -12.538 2.03217e-16 0.0 3.88251e-19 31.3798 -59.5497 22.0908 0.664417 51.0585 -0.986352 3.44261 -6.71746 9.58928
18.3846 75.8784 63.9182 -8.2014 -20.2609 23.6759 2.41111 1.13502 -4.25041 3.30672 -6.67746 -1.12008 18.0392 9.90026 12.4505 -20.8792 -12.4633 20.0127 -0.0 0.0 0.0 -0.0 0.0 0.0 -1.14187e-13 -5.48407e-13 -7.484e-13 23.9645 40.2045 58.1783 -20.8937 -52.6257 111.998 -0.426144 -18.2379 -2.65434 -2.63952e-09 -1.52725e-09 -6.54595e-10 -4.54957e-09 -2.62776e-09 -1.17119e-09 -2.63952e-09 -1.52724e-09 -6.54614e-10 7.73091 5.47488 0.417314 -2.63953e-09 -1.52724e-09 -6.54606e-10 2.90554 0.965183 0.102902 -2.63952e-09 -1.52724e-09 -6.54601e-10 10.2786 0.731801 0.0259123 -2.63953e-09 -1.52723e-09 -6.54597e-10 2.22167 -0.733487 -0.20892 -1.14155e-13 -5.48387e-13 -7.48576e-13 -11.7955 41.7166 -53.1205 19.9094 -12.898 -38.4621 0.112697 9.53953 -1.35331 -8.33196e-10 3.8662e-09 2.58744e-09 -1.42574e-09 6.68592e-09 4.49122e-09 -8.332e-10 3.86621e-09 2.58746e-09 -7.73091 5.47488 -0.417314 -8.33193e-10 3.8662e-09 2.58745e-09 -2.90554 0.965183 -0.102902 -8.33201e-10 3.8662e-09 2.58745e-09 -10.2786 0.731801 -0.0259123 -8.33191e-10 3.8662e-09 2.58744e-09 -2.22167 -0.733487 0.20892 -2.03217e-16 0.0 -3.88251e-19 -11.4264 -13.5302 5.53677 0.0814153 14.7641 1.04951 -3.40231 -12.311 -12.0847 2.03217e-16 0.0 3.88251e-19 30.96 -59.2515 21.753 0.655443 50.7219 -0.955966 3.40044 -6.58264 9.58665
18.2681 75.923 63.7909 -7.9954 -20.3714 23.443 2.18592 1.02713 -4.31418 3.25822 -6.64245 -1.14295 17.9992 9.87259 12.3925 -20.8993 -12.2866 19.9232 -0.0 0.0 0.0 -0.0 0.0 0.0 -9.44893e-14 -3.02758e-13 -2.24903e-13 23.8197 40.2113 58.2898 -20.9103 -52.6115 111.956 -0.424311 -18.1997 -2.64841 -4.22609e-10 -9.31706e-11 1.98235e-10 -7.31242e-10 -1.66022e-10 3.37999e-10 -4.22607e-10 -9.31608e-11 1.98216e-10 7.73091 5.47488 0.417314 -4.22613e-10 -9.31628e-11 1.98227e-10 2.90554 0.965183 0.102902 -4.22603e-10 -9.31608e-11 1.98231e-10 10.2786 0.731801 0.0259123 -4.22612e-10 -9.31442e-11 1.98235e-10 2.22167 -0.733487 -0.20892 -9.44898e-14 -3.0274e-13 -2.25124e-13 -11.9906 41.7691 -53.024 20.0912 -13.1243 -38.9125 0.121671 9.90954 -1.40684 -6.0782e-10 1.69957e-09 6.58357e-10 -1.04883e-09 2.94576e-09 1.14603e-09 -6.07833e-10 1.69959e-09 6.58379e-10 -7.73091 5.47488 -0.417314 -6.07817e-10 1.69957e-09 6.58359e-10 -2.90554 0.965183 -0.102902 -6.07824e-10 1.69957e-09 6.58358e-10 -10.2786 0.731801 -0.0259123 -6.07816e-10 1.69957e-09 6.58351e-10 -2.22167 -0.733487 0.20892 -2.03217e-16 0.0 -3.88251e-19 -11.6688 -13.9361 5.44532 0.0846819 15.6152 1.04553 -3.44289 -12.6847 -11.6406 2.03217e-16 0.0 3.88251e-19 30.5055 -58.9365 21.4039 0.645438 50.3551 -0.925467 3.35438 -6.43236 9.57486
18.1385 75.9704 63.6574 -7.775 -20.472 23.1869 1.96796 0.921499 -4.38579 3.21506 -6.60661 -1.16737 17.9535 9.84221 12.3401 -20.9356 -12.0915 19.8463 -0.0 0.0 0.0 -0.0 0.0 0.0 -6.37319e-14 -1.26787e-14 3.04559e-13 23.679 40.2205 58.3806 -20.9406 -52.5857 111.879 -0.42117 -18.135 -2.63832 1.8299e-09 1.30084e-09 9.53153e-10 3.15031e-09 2.22961e-09 1.67774e-09 1.8299e-09 1.30084e-09 9.53134e-10 7.73091 5.47488 0.417314 1.8299e-09 1.30085e-09 9.53148e-10 2.90554 0.965183 0.102902 1.82991e-09 1.30085e-09 9.53151e-10 10.2786 0.731801 0.0259123 1.8299e-09 1.30087e-09 9.53154e-10 2.22167 -0.733487 -0.20892 -6.37667e-14 -1.26662e-14 3.04292e-13 -12.2873 41.8195 -52.8394 20.3044 -13.396 -39.4375 0.130317 10.2418 -1.45506 -1.99058e-10 -6.88607e-10 -1.26377e-09 -3.54449e-10 -1.17973e-09 -2.1887e-09 -1.9908e-10 -6.88584e-10 -1.26374e-09 -7.73091 5.47488 -0.417314 -1.99056e-10 -6.88607e-10 -1.26377e-09 -2.90554 0.965183 -0.102902 -1.99061e-10 -6.88608e-10 -1.26377e-09 -10.2786 0.731801 -0.0259123 -1.99055e-10 -6.88609e-10 -1.26378e-09 -2.22167 -0.733487 0.20892 -2.03217e-16 0.0 -3.88251e-19 -11.9108 -14.2955 5.35973 0.0885915 16.4068 1.04076 -3.47082 -13.0358 -11.2283 2.03217e-16 0.0 3.88251e-19 30.04 -58.6017 21.0448 0.634783 49.9681 -0.895615 3.30548 -6.26708 9.55903
17.9943 76.0177 63.5183 -7.5451 -20.5608 22.9074 1.77385 0.832563 -4.45953 3.17453 -6.5768 -1.19147 17.9055 9.81585 12.2942 -20.9835 -11.8906 19.7838 -0.0 0.0 0.0 -0.0 0.0 0.0 -4.76787e-14 1.87648e-13 6.17226e-13 23.5324 40.228 58.4563 -20.9842 -52.5486 111.768 -0.416425 -18.0377 -2.62316 3.18385e-09 2.07926e-09 1.34272e-09 5.48456e-09 3.56827e-09 2.37163e-09 3.18384e-09 2.07926e-09 1.3427e-09 7.73091 5.47488 0.417314 3.18385e-09 2.07927e-09 1.34271e-09 2.90554 0.965183 0.102902 3.18386e-09 2.07927e-09 1.34271e-09 10.2786 0.731801 0.0259123 3.18385e-09 2.0793e-09 1.34272e-09 2.22167 -0.733487 -0.20892 -4.77412e-14 1.87657e-13 6.16928e-13 -12.6873 41.8793 -52.564 20.5614 -13.7345 -40.0608 0.133408 10.3575 -1.47188 3.12655e-10 -2.48905e-09 -2.44029e-09 5.23042e-10 -4.29299e-09 -4.23182e-09 3.12629e-10 -2.48903e-09 -2.44026e-09 -7.73091 5.47488 -0.417314 3.12657e-10 -2.48905e-09 -2.44029e-09 -2.90554 0.965183 -0.102902 3.12653e-10 -2.48905e-09 -2.44029e-09 -10.2786 0.731801 -0.0259123 3.12658e-10 -2.48905e-09 -2.4403e-09 -2.22167 -0.733487 0.20892 -2.03217e-16 0.0 -3.88251e-19 -12.1261 -14.6198 5.28441 0.0903711 17.1705 1.0355 -3.49984 -13.3729 -10.8707 2.03217e-16 0.0 3.88251e-19 29.5872 -58.2437 20.6769 0.623792 49.571 -0.867112 3.2547 -6.08726 9.54431
17.8336 76.0658 63.3697 -7.3139 -20.6401 22.6053 1.60484 0.765174 -4.54495 3.13928 -6.5536 -1.21764 17.8579 9.79428 12.2581 -21.0484 -11.6879 19.7409 -0.0 0.0 0.0 -0.0 0.0 0.0 -5.4574e-14 2.57485e-13 6.03436e-13 23.3809 40.2328 58.5208 -21.0473 -52.4947 111.607 -0.408879 -17.8822 -2.59895 3.20272e-09 1.93355e-09 1.19041e-09 5.51983e-09 3.31993e-09 2.10762e-09 3.20271e-09 1.93355e-09 1.19039e-09 7.73091 5.47488 0.417314 3.20271e-09 1.93356e-09 1.19041e-09 2.90554 0.965183 0.102902 3.20272e-09 1.93356e-09 1.19041e-09 10.2786 0.731801 0.0259123 3.20271e-09 1.93358e-09 1.19041e-09 2.22167 -0.733487 -0.20892 -5.46583e-14 2.57491e-13 6.03127e-13 -13.2053 41.9454 -52.1857 20.8581 -14.133 -40.7996 0.129327 10.1983 -1.44876 1.04899e-09 -3.5039e-09 -2.51417e-09 1.79649e-09 -6.05468e-09 -4.36561e-09 1.04896e-09 -3.50388e-09 -2.51413e-09 -7.73091 5.47488 -0.417314 1.04899e-09 -3.5039e-09 -2.51417e-09 -2.90554 0.965183 -0.102902 1.04898e-09 -3.5039e-09 -2.51417e-09 -10.2786 0.731801 -0.0259123 1.04899e-09 -3.5039e-09 -2.51417e-09 -2.22167 -0.733487 0.20892 -2.03217e-16 0.0 -3.88251e-19 -12.3163 -14.9057 5.21893 0.0896718 17.9064 1.02945 -3.53145 -13.6936 -10.574 2.03217e-16 0.0 3.88251e-19 29.1468 -57.8642 20.3007 0.612451 49.1666 -0.840279 3.20127 -5.89316 9.5265
17.6529 76.1116 63.2109 -7.0904 -20.7109 22.2813 1.45315 0.711293 -4.64139 3.10963 -6.53378 -1.24593 17.8084 9.77427 12.2303 -21.1309 -11.4766 19.7151 -0.0 0.0 0.0 -0.0 0.0 0.0 -7.02193e-14 2.70047e-13 3.98747e-13 23.2286 40.2371 58.5703 -21.1274 -52.4252 111.402 -0.399232 -17.6796 -2.5675 2.44719e-09 1.22234e-09 6.73931e-10 4.22247e-09 2.10165e-09 1.20145e-09 2.44719e-09 1.22234e-09 6.73912e-10 7.73091 5.47488 0.417314 2.44719e-09 1.22234e-09 6.7393e-10 2.90554 0.965183 0.102902 2.44719e-09 1.22235e-09 6.7393e-10 10.2786 0.731801 0.0259123 2.44718e-09 1.22236e-09 6.73937e-10 2.22167 -0.733487 -0.20892 -7.0323e-14 2.70051e-13 3.98439e-13 -13.8359 42.0112 -51.7087 21.1828 -14.5758 -41.641 0.121097 9.86314 -1.4002 2.00513e-09 -4.1588e-09 -1.9327e-09 3.45466e-09 -7.19903e-09 -3.36538e-09 2.00512e-09 -4.15878e-09 -1.93266e-09 -7.73091 5.47488 -0.417314 2.00513e-09 -4.1588e-09 -1.9327e-09 -2.90554 0.965183 -0.102902 2.00512e-09 -4.1588e-09 -1.9327e-09 -10.2786 0.731801 -0.0259123 2.00513e-09 -4.1588e-09 -1.9327e-09 -2.22167 -0.733487 0.20892 -2.03217e-16 0.0 -3.88251e-19 -12.4921 -15.1494 5.16147 0.0878824 18.6004 1.02252 -3.5611 -13.9949 -10.3261 2.03217e-16 0.0 3.88251e-19 28.71 -57.4637 19.9172 0.600608 48.7495 -0.814684 3.14508 -5.68448 9.50477
17.4527 76.1549 63.0396 -6.8686 -20.7754 21.9358 1.32201 0.666024 -4.72784 3.07936 -6.51844 -1.27089 17.7525 9.75651 12.2046 -21.2188 -11.253 19.6966 -0.0 0.0 0.0 -0.0 0.0 0.0 -8.67138e-14 2.62084e-13 1.48232e-13 23.0704 40.2419 58.5988 -21.2118 -52.351 111.185 -0.389918 -17.4794 -2.53653 1.47893e-09 3.7089e-10 5.71687e-11 2.55898e-09 6.43203e-10 1.18426e-10 1.47893e-09 3.70888e-10 5.7151e-11 7.73091 5.47488 0.417314 1.47893e-09 3.70889e-10 5.71683e-11 2.90554 0.965183 0.102902 1.47894e-09 3.7089e-10 5.71679e-11 10.2786 0.731801 0.0259123 1.47892e-09 3.70901e-10 5.71764e-11 2.22167 -0.733487 -0.20892 -8.68298e-14 2.62085e-13 1.47931e-13 -14.5509 42.0835 -51.154 21.534 -15.0702 -42.5639 0.110224 9.40899 -1.33453 2.91094e-09 -4.57969e-09 -1.16373e-09 5.02707e-09 -7.93891e-09 -2.0395e-09 2.91093e-09 -4.57968e-09 -1.16371e-09 -7.73091 5.47488 -0.417314 2.91094e-09 -4.57969e-09 -1.16373e-09 -2.90554 0.965183 -0.102902 2.91093e-09 -4.57969e-09 -1.16373e-09 -10.2786 0.731801 -0.0259123 2.91094e-09 -4.57968e-09 -1.16374e-09 -2.22167 -0.733487 0.20892 -2.03217e-16 0.0 -3.88251e-19 -12.6406 -15.3609 5.11444 0.0848083 19.2627 1.0153 -3.59343 -14.2839 -10.1233 2.03217e-16 0.0 3.88251e-19 28.2891 -57.0379 19.5291 0.58834 48.3176 -0.789876 3.08801 -5.46086 9.48925
17.2301 76.1981 62.858 -6.6617 -20.8481 21.5737 1.21467 0.624468 -4.78328 3.04225 -6.50868 -1.28706 17.686 9.74169 12.1749 -21.2998 -11.0135 19.6761 -0.0 0.0 0.0 -0.0 0.0 0.0 -9.61567e-14 2.70347e-13 -3.03147e-15 22.9012 40.2481 58.6005 -21.2884 -52.283 110.987 -0.383159 -17.3312 -2.51366 8.59616e-10 -1.95553e-10 -3.95995e-10 1.49587e-09 -3.25628e-10 -6.76152e-10 8.59621e-10 -1.95555e-10 -3.96011e-10 7.73091 5.47488 0.417314 8.59617e-10 -1.95555e-10 -3.95995e-10 2.90554 0.965183 0.102902 8.59622e-10 -1.95555e-10 -3.95995e-10 10.2786 0.731801 0.0259123 8.59608e-10 -1.95549e-10 -3.95985e-10 2.22167 -0.733487 -0.20892 -9.62732e-14 2.70347e-13 -3.32964e-15 -15.3227 42.1695 -50.5427 21.9105 -15.6235 -43.5483 0.0979847 8.89279 -1.26003 3.49626e-09 -4.89252e-09 -6.75124e-10 6.04324e-09 -8.48715e-09 -1.19635e-09 3.49627e-09 -4.89252e-09 -6.75105e-10 -7.73091 5.47488 -0.417314 3.49626e-09 -4.89252e-09 -6.75124e-10 -2.90554 0.965183 -0.102902 3.49625e-09 -4.89252e-09 -6.75124e-10 -10.2786 0.731801 -0.0259123 3.49627e-09 -4.89252e-09 -6.7513e-10 -2.22167 -0.733487 0.20892 -2.03217e-16 0.0 -3.88251e-19 -12.749 -15.5504 5.08025 0.0802286 19.9036 1.00841 -3.63282 -14.5679 -9.96159 2.03217e-16 0.0 3.88251e-19 27.896 -56.5827 19.1389 0.57575 47.8688 -0.765424 3.03177 -5.22196 9.49004
